<?xml version="1.0" encoding="UTF-8"?>
<svg id="Layer_2" data-name="Layer 2" xmlns="http://www.w3.org/2000/svg" viewBox="0 0 177.32 58.03">
  <defs>
    <style>
      .cls-1 {
        fill: #231f20;
      }

      .cls-2 {
        fill: #cadb2b;
      }
    </style>
  </defs>
  <g id="Layer_1-2" data-name="Layer 1">
    <g>
      <rect class="cls-1" x="0" y="0" width="177.32" height="58.03" rx="29.01" ry="29.01"/>
      <g>
        <path class="cls-2" d="M55.89,16.64c-3.71-2.61-8.72-2.15-11.98.92-3.26-3.07-8.27-3.53-11.98-.92-1.68,1.18-2.84,2.84-3.43,4.66h4.78c.17-.26.36-.5.58-.72,1.86-1.89,4.92-1.95,6.9-.21l3.16,3.13,3.16-3.13c1.98-1.75,5.03-1.69,6.9.21,1.81,1.83,2.04,4.96.15,6.86l-10.13,10.17-.07-.07-.07.07-10.13-10.17c-1.53-1.49-2.53-1.43-2.53-1.43h-13.39c1.13,2.63,2.78,4.71,5.61,4.71h7.47l13,12.81.05-.05.05.05,13.21-13.02c4.02-3.96,3.28-10.67-1.28-13.87Z"/>
        <path class="cls-2" d="M30.35,32.12h-5.2c.88,2.06,3.12,3.69,5.34,3.69h3.6l-3.74-3.69Z"/>
        <path class="cls-2" d="M31.48,36.58c.73,1.71,2.82,3.06,4.66,3.06h1.78l-3.11-3.06h-3.34Z"/>
        <path class="cls-2" d="M80.72,25.77c-.96-.6-2.03-.9-3.21-.9-.99,0-1.88.21-2.65.62-.77.41-1.36.95-1.77,1.62v-6.71h-4.4v19.03h4.4v-2.01c.43.67,1.02,1.21,1.77,1.61s1.64.6,2.65.6c1.18,0,2.25-.3,3.21-.91.96-.61,1.72-1.47,2.28-2.6.56-1.12.84-2.42.84-3.9s-.28-2.77-.84-3.88-1.32-1.97-2.28-2.57ZM78.43,34.84c-.62.64-1.36.96-2.24.96s-1.62-.32-2.22-.95c-.61-.63-.91-1.5-.91-2.6s.3-1.96.91-2.6c.61-.63,1.35-.95,2.22-.95s1.64.31,2.25.94c.61.63.91,1.49.91,2.58s-.31,1.97-.93,2.61Z"/>
        <rect class="cls-2" x="86.14" y="25.08" width="4.4" height="14.35"/>
        <path class="cls-2" d="M88.35,18.83c-.77,0-1.4.23-1.89.68s-.73,1.02-.73,1.71.24,1.23.73,1.68,1.12.68,1.89.68,1.38-.23,1.87-.68.73-1.02.73-1.68-.24-1.26-.73-1.71-1.11-.68-1.87-.68Z"/>
        <path class="cls-2" d="M99.13,35.41c-.2-.19-.31-.5-.31-.93v-5.76h2.88v-3.65h-2.88v-3.5h-4.4v3.5h-1.75v3.65h1.75v5.71c0,1.77.45,3.04,1.34,3.82.89.78,2.13,1.17,3.73,1.17h2.24v-3.73h-1.57c-.48,0-.82-.09-1.03-.28Z"/>
        <polygon class="cls-2" points="114.38 28.57 114.38 25.08 103.42 25.08 103.42 28.7 109.34 28.7 103.37 35.93 103.37 39.43 114.51 39.43 114.51 35.8 108.28 35.8 114.38 28.57"/>
        <path class="cls-2" d="M121.32,27.47v-2.39h-4.4v14.35h4.4v-6.66c0-1.18.27-2.01.82-2.48.55-.47,1.37-.71,2.47-.71h1.21v-4.65c-.94,0-1.8.23-2.57.68-.77.45-1.42,1.08-1.93,1.86Z"/>
        <path class="cls-2" d="M137.7,32.87c0,.96-.25,1.71-.75,2.24-.5.53-1.17.8-2.03.8s-1.51-.27-2.01-.8c-.5-.53-.75-1.28-.75-2.24v-7.79h-4.37v8.38c0,1.25.23,2.34.69,3.27.46.93,1.11,1.63,1.95,2.12.84.49,1.81.73,2.91.73.93,0,1.77-.19,2.53-.58.76-.39,1.37-.9,1.81-1.53v1.95h4.4v-14.35h-4.4v7.79Z"/>
        <path class="cls-2" d="M158.03,26.56c-1-1.09-2.34-1.63-4.02-1.63-.94,0-1.79.18-2.55.55-.75.37-1.35.87-1.8,1.5v-1.9h-4.4v14.35h4.4v-7.79c0-.96.25-1.71.75-2.24.5-.53,1.17-.8,2.01-.8s1.51.27,2.01.8c.5.53.75,1.28.75,2.24v7.79h4.37v-8.38c0-1.9-.5-3.4-1.5-4.49Z"/>
      </g>
    </g>
  </g>
</svg>